REM DIRINDEX 1\2\4\18,1\2\4\19,1\2\5\20,1\2\5\21,1\2\6\22,1\2\7\23,1\2\8\24,1\2\8\25,1\2\9\26,1\2\10\27,1\3\11\28,1\3\11\29,1\3\11\30,1\3\11\31,1\3\12\32,1\3\12\33,1\3\12\34,1\3\12\35,1\3\13\36,1\3\13\37,1\3\14\38,1\3\14\39,1\3\15\40,1\3\15\41,1\3\15\42,1\3\16\43,1\3\16\44,1\3\17\45,1\3\17\46
REM DIRNAME cjc024,folder01,folder02,folder03,folder04,folder05,folder06,folder07,folder08,folder09,folder10,folder11,folder12,folder13,folder14,folder15,folder16,folder17,folder18,folder19,folder20,folder21,folder22,folder23,folder24,folder25,folder26,folder27,folder28,folder29,folder30,folder31,folder32,folder33,folder34,folder35,folder36,folder37,folder38,folder39,folder40,folder41,folder42,folder43,folder44,folder45
TITLE ""
FILE "06.mp3" MP3
  TRACK 01 AUDIO
    TITLE "0:"
    INDEX 01 00:00:00
  TRACK 02 AUDIO
    TITLE "46:cjc024_4796"
    INDEX 01 00:00:13
  TRACK 03 AUDIO
    TITLE "0:"
    INDEX 01 00:01:30
  TRACK 04 AUDIO
    TITLE "45:cjc024_4797"
    INDEX 01 00:01:56
  TRACK 05 AUDIO
    TITLE "0:"
    INDEX 01 00:03:15
  TRACK 06 AUDIO
    TITLE "46:cjc024_4798"
    INDEX 01 00:04:05
  TRACK 07 AUDIO
    TITLE "0:"
    INDEX 01 00:05:34
  TRACK 08 AUDIO
    TITLE "45:cjc024_4799"
    INDEX 01 00:05:57
  TRACK 09 AUDIO
    TITLE "0:"
    INDEX 01 00:07:31
  TRACK 10 AUDIO
    TITLE "46:cjc024_4800"
    INDEX 01 00:08:19
  TRACK 11 AUDIO
    TITLE "0:"
    INDEX 01 00:09:14
  TRACK 12 AUDIO
    TITLE "45:cjc024_4801"
    INDEX 01 00:09:42
  TRACK 13 AUDIO
    TITLE "0:"
    INDEX 01 00:10:59
  TRACK 14 AUDIO
    TITLE "46:cjc024_4802"
    INDEX 01 00:11:50
  TRACK 15 AUDIO
    TITLE "0:"
    INDEX 01 00:12:56
  TRACK 16 AUDIO
    TITLE "45:cjc024_4803"
    INDEX 01 00:13:06
  TRACK 17 AUDIO
    TITLE "0:"
    INDEX 01 00:14:37
  TRACK 18 AUDIO
    TITLE "46:cjc024_4804"
    INDEX 01 00:15:23
  TRACK 19 AUDIO
    TITLE "0:"
    INDEX 01 00:17:45
  TRACK 20 AUDIO
    TITLE "45:cjc024_4805"
    INDEX 01 00:17:70
  TRACK 21 AUDIO
    TITLE "0:"
    INDEX 01 00:18:70
  TRACK 22 AUDIO
    TITLE "46:cjc024_4806"
    INDEX 01 00:19:60
  TRACK 23 AUDIO
    TITLE "0:"
    INDEX 01 00:21:00
  TRACK 24 AUDIO
    TITLE "45:cjc024_4807"
    INDEX 01 00:21:25
  TRACK 25 AUDIO
    TITLE "0:"
    INDEX 01 00:22:66
  TRACK 26 AUDIO
    TITLE "46:cjc024_4808"
    INDEX 01 00:23:53
  TRACK 27 AUDIO
    TITLE "0:"
    INDEX 01 00:25:01
  TRACK 28 AUDIO
    TITLE "45:cjc024_4809"
    INDEX 01 00:25:29
  TRACK 29 AUDIO
    TITLE "0:"
    INDEX 01 00:26:56
  TRACK 30 AUDIO
    TITLE "46:cjc024_4810"
    INDEX 01 00:27:51
  TRACK 31 AUDIO
    TITLE "0:"
    INDEX 01 00:28:64
  TRACK 32 AUDIO
    TITLE "45:cjc024_4811"
    INDEX 01 00:29:15
  TRACK 33 AUDIO
    TITLE "0:"
    INDEX 01 00:30:34
  TRACK 34 AUDIO
    TITLE "46:cjc024_4812"
    INDEX 01 00:31:26
  TRACK 35 AUDIO
    TITLE "0:"
    INDEX 01 00:32:29
  TRACK 36 AUDIO
    TITLE "45:cjc024_4813"
    INDEX 01 00:32:56
  TRACK 37 AUDIO
    TITLE "0:"
    INDEX 01 00:35:12
  TRACK 38 AUDIO
    TITLE "46:cjc024_4814"
    INDEX 01 00:36:01
  TRACK 39 AUDIO
    TITLE "0:"
    INDEX 01 00:37:16
  TRACK 40 AUDIO
    TITLE "45:cjc024_4815"
    INDEX 01 00:37:42
  TRACK 41 AUDIO
    TITLE "0:"
    INDEX 01 00:39:15
  TRACK 42 AUDIO
    TITLE "46:cjc024_4816"
    INDEX 01 00:40:03
  TRACK 43 AUDIO
    TITLE "0:"
    INDEX 01 00:41:40
  TRACK 44 AUDIO
    TITLE "45:cjc024_4817"
    INDEX 01 00:41:73
  TRACK 45 AUDIO
    TITLE "0:"
    INDEX 01 00:43:25
  TRACK 46 AUDIO
    TITLE "46:cjc024_4818"
    INDEX 01 00:44:12
  TRACK 47 AUDIO
    TITLE "0:"
    INDEX 01 00:45:32
  TRACK 48 AUDIO
    TITLE "45:cjc024_4819"
    INDEX 01 00:45:59
  TRACK 49 AUDIO
    TITLE "0:"
    INDEX 01 00:46:74
  TRACK 50 AUDIO
    TITLE "46:cjc024_4820"
    INDEX 01 00:47:64
  TRACK 51 AUDIO
    TITLE "0:"
    INDEX 01 00:49:06
  TRACK 52 AUDIO
    TITLE "45:cjc024_4821"
    INDEX 01 00:49:31
  TRACK 53 AUDIO
    TITLE "0:"
    INDEX 01 00:50:60
  TRACK 54 AUDIO
    TITLE "46:cjc024_4822"
    INDEX 01 00:51:50
  TRACK 55 AUDIO
    TITLE "0:"
    INDEX 01 00:52:59
  TRACK 56 AUDIO
    TITLE "45:cjc024_4823"
    INDEX 01 00:53:09
  TRACK 57 AUDIO
    TITLE "0:"
    INDEX 01 00:54:19
  TRACK 58 AUDIO
    TITLE "46:cjc024_4824"
    INDEX 01 00:55:04
  TRACK 59 AUDIO
    TITLE "0:"
    INDEX 01 00:56:08
  TRACK 60 AUDIO
    TITLE "45:cjc024_4825"
    INDEX 01 00:56:33
  TRACK 61 AUDIO
    TITLE "0:"
    INDEX 01 00:57:46
  TRACK 62 AUDIO
    TITLE "46:cjc024_4826"
    INDEX 01 00:58:38
  TRACK 63 AUDIO
    TITLE "0:"
    INDEX 01 00:59:59
  TRACK 64 AUDIO
    TITLE "45:cjc024_4827"
    INDEX 01 01:00:12
  TRACK 65 AUDIO
    TITLE "0:"
    INDEX 01 01:01:13
  TRACK 66 AUDIO
    TITLE "46:cjc024_4828"
    INDEX 01 01:02:01
  TRACK 67 AUDIO
    TITLE "0:"
    INDEX 01 01:03:02
  TRACK 68 AUDIO
    TITLE "45:cjc024_4829"
    INDEX 01 01:03:27
  TRACK 69 AUDIO
    TITLE "0:"
    INDEX 01 01:04:43
  TRACK 70 AUDIO
    TITLE "46:cjc024_4830"
    INDEX 01 01:05:30
  TRACK 71 AUDIO
    TITLE "0:"
    INDEX 01 01:06:47
  TRACK 72 AUDIO
    TITLE "45:cjc024_4831"
    INDEX 01 01:06:71
  TRACK 73 AUDIO
    TITLE "0:"
    INDEX 01 01:08:25
  TRACK 74 AUDIO
    TITLE "46:cjc024_4832"
    INDEX 01 01:09:10
  TRACK 75 AUDIO
    TITLE "0:"
    INDEX 01 01:10:45
  TRACK 76 AUDIO
    TITLE "45:cjc024_4833"
    INDEX 01 01:10:71
  TRACK 77 AUDIO
    TITLE "0:"
    INDEX 01 01:12:32
  TRACK 78 AUDIO
    TITLE "46:cjc024_4834"
    INDEX 01 01:13:20
  TRACK 79 AUDIO
    TITLE "0:"
    INDEX 01 01:15:21
  TRACK 80 AUDIO
    TITLE "45:cjc024_4835"
    INDEX 01 01:15:48
  TRACK 81 AUDIO
    TITLE "0:"
    INDEX 01 01:17:10
  TRACK 82 AUDIO
    TITLE "46:cjc024_4836"
    INDEX 01 01:17:73
  TRACK 83 AUDIO
    TITLE "0:"
    INDEX 01 01:19:36
  TRACK 84 AUDIO
    TITLE "45:cjc024_4837"
    INDEX 01 01:19:64
  TRACK 85 AUDIO
    TITLE "0:"
    INDEX 01 01:21:35
  TRACK 86 AUDIO
    TITLE "46:cjc024_4838"
    INDEX 01 01:22:23
  TRACK 87 AUDIO
    TITLE "0:"
    INDEX 01 01:23:30
  TRACK 88 AUDIO
    TITLE "45:cjc024_4839"
    INDEX 01 01:23:56
  TRACK 89 AUDIO
    TITLE "0:"
    INDEX 01 01:24:53
  TRACK 90 AUDIO
    TITLE "46:cjc024_4840"
    INDEX 01 01:25:45
  TRACK 91 AUDIO
    TITLE "0:"
    INDEX 01 01:27:22
  TRACK 92 AUDIO
    TITLE "45:cjc024_4841"
    INDEX 01 01:27:46
  TRACK 93 AUDIO
    TITLE "0:"
    INDEX 01 01:28:45
  TRACK 94 AUDIO
    TITLE "46:cjc024_4842"
    INDEX 01 01:29:39
  TRACK 95 AUDIO
    TITLE "0:"
    INDEX 01 01:31:49
  TRACK 96 AUDIO
    TITLE "45:cjc024_4843"
    INDEX 01 01:32:02
  TRACK 97 AUDIO
    TITLE "0:"
    INDEX 01 01:33:07
  TRACK 98 AUDIO
    TITLE "46:cjc024_4844"
    INDEX 01 01:34:06
  TRACK 99 AUDIO
    TITLE "0:"
    INDEX 01 01:35:49
  TRACK 100 AUDIO
    TITLE "45:cjc024_4845"
    INDEX 01 01:36:00
  TRACK 101 AUDIO
    TITLE "0:"
    INDEX 01 01:37:13
  TRACK 102 AUDIO
    TITLE "46:cjc024_4846"
    INDEX 01 01:38:02
  TRACK 103 AUDIO
    TITLE "0:"
    INDEX 01 01:39:35
  TRACK 104 AUDIO
    TITLE "45:cjc024_4847"
    INDEX 01 01:39:63
  TRACK 105 AUDIO
    TITLE "0:"
    INDEX 01 01:42:33
  TRACK 106 AUDIO
    TITLE "46:cjc024_4848"
    INDEX 01 01:43:21
  TRACK 107 AUDIO
    TITLE "0:"
    INDEX 01 01:44:40
  TRACK 108 AUDIO
    TITLE "45:cjc024_4849"
    INDEX 01 01:44:70
  TRACK 109 AUDIO
    TITLE "0:"
    INDEX 01 01:47:56
  TRACK 110 AUDIO
    TITLE "46:cjc024_4850"
    INDEX 01 01:48:46
  TRACK 111 AUDIO
    TITLE "0:"
    INDEX 01 01:49:69
  TRACK 112 AUDIO
    TITLE "45:cjc024_4851"
    INDEX 01 01:50:21
  TRACK 113 AUDIO
    TITLE "0:"
    INDEX 01 01:51:74
  TRACK 114 AUDIO
    TITLE "46:cjc024_4852"
    INDEX 01 01:52:63
  TRACK 115 AUDIO
    TITLE "0:"
    INDEX 01 01:54:23
  TRACK 116 AUDIO
    TITLE "45:cjc024_4853"
    INDEX 01 01:54:48
  TRACK 117 AUDIO
    TITLE "0:"
    INDEX 01 01:55:65
  TRACK 118 AUDIO
    TITLE "46:cjc024_4854"
    INDEX 01 01:56:53
  TRACK 119 AUDIO
    TITLE "0:"
    INDEX 01 01:58:11
  TRACK 120 AUDIO
    TITLE "45:cjc024_4855"
    INDEX 01 01:58:38
  TRACK 121 AUDIO
    TITLE "0:"
    INDEX 01 02:00:06
  TRACK 122 AUDIO
    TITLE "46:cjc024_4856"
    INDEX 01 02:00:71
  TRACK 123 AUDIO
    TITLE "0:"
    INDEX 01 02:02:73
  TRACK 124 AUDIO
    TITLE "45:cjc024_4857"
    INDEX 01 02:03:24
  TRACK 125 AUDIO
    TITLE "0:"
    INDEX 01 02:04:72
  TRACK 126 AUDIO
    TITLE "46:cjc024_4858"
    INDEX 01 02:05:64
  TRACK 127 AUDIO
    TITLE "0:"
    INDEX 01 02:07:45
  TRACK 128 AUDIO
    TITLE "45:cjc024_4859"
    INDEX 01 02:07:73
  TRACK 129 AUDIO
    TITLE "0:"
    INDEX 01 02:08:74
